<?xml version="1.0" encoding="UTF-8" standalone="no"?>
<svg
   width="2500"
   height="741"
   viewBox="0 0 539.856 160"
   version="1.1"
   id="svg44"
   sodipodi:docname="download-2.svg"
   inkscape:version="1.1 (c4e8f9e, 2021-05-24)"
   xmlns:inkscape="http://www.inkscape.org/namespaces/inkscape"
   xmlns:sodipodi="http://sodipodi.sourceforge.net/DTD/sodipodi-0.dtd"
   xmlns="http://www.w3.org/2000/svg"
   xmlns:svg="http://www.w3.org/2000/svg"
   xmlns:rdf="http://www.w3.org/1999/02/22-rdf-syntax-ns#"
   xmlns:dc="http://purl.org/dc/elements/1.1/">
  <defs
     id="defs48" />
  <sodipodi:namedview
     id="namedview46"
     pagecolor="#505050"
     bordercolor="#eeeeee"
     borderopacity="1"
     inkscape:pageshadow="0"
     inkscape:pageopacity="0"
     inkscape:pagecheckerboard="0"
     showgrid="false"
     inkscape:zoom="0.1866066"
     inkscape:cx="1631.7751"
     inkscape:cy="233.11073"
     inkscape:window-width="1280"
     inkscape:window-height="701"
     inkscape:window-x="0"
     inkscape:window-y="23"
     inkscape:window-maximized="1"
     inkscape:current-layer="g38" />
  <g
     transform="scale(4.00216 4.0011)"
     id="g40">
    <path
       fill="#FFF"
       d="M134.032 35.268a3.83 3.83 0 0 1-3.834 3.83H4.729a3.835 3.835 0 0 1-3.839-3.83V4.725A3.84 3.84 0 0 1 4.729.89h125.468a3.834 3.834 0 0 1 3.834 3.835l.001 30.543z"
       id="path9" />
    <path
       fill="#A6A6A6"
       d="M130.198 39.989H4.729A4.73 4.73 0 0 1 0 35.268V4.726A4.733 4.733 0 0 1 4.729 0h125.468a4.735 4.735 0 0 1 4.729 4.726v30.542c.002 2.604-2.123 4.721-4.728 4.721z"
       id="path11" />
    <path
       d="M134.032 35.268a3.83 3.83 0 0 1-3.834 3.83H4.729a3.835 3.835 0 0 1-3.839-3.83V4.725A3.84 3.84 0 0 1 4.729.89h125.468a3.834 3.834 0 0 1 3.834 3.835l.001 30.543z"
       id="path13" />
    <path
       fill="#FFF"
       d="M30.128 19.784c-.029-3.223 2.639-4.791 2.761-4.864-1.511-2.203-3.853-2.504-4.676-2.528-1.967-.207-3.875 1.177-4.877 1.177-1.022 0-2.565-1.157-4.228-1.123-2.14.033-4.142 1.272-5.24 3.196-2.266 3.923-.576 9.688 1.595 12.859 1.086 1.554 2.355 3.287 4.016 3.226 1.625-.066 2.232-1.035 4.193-1.035 1.943 0 2.513 1.035 4.207.996 1.744-.027 2.842-1.56 3.89-3.127 1.255-1.779 1.759-3.533 1.779-3.623-.04-.014-3.386-1.292-3.42-5.154zM26.928 10.306c.874-1.093 1.472-2.58 1.306-4.089-1.265.056-2.847.875-3.758 1.944-.806.942-1.526 2.486-1.34 3.938 1.421.106 2.88-.717 3.792-1.793z"
       id="path15" />
    <linearGradient
       id="a"
       gradientUnits="userSpaceOnUse"
       x1="-23.235"
       y1="97.431"
       x2="-23.235"
       y2="61.386"
       gradientTransform="matrix(4.0022 0 0 4.0011 191.95 -349.736)">
      <stop
         offset="0"
         stop-color="#1a1a1a"
         stop-opacity=".1"
         id="stop17" />
      <stop
         offset=".123"
         stop-color="#212121"
         stop-opacity=".151"
         id="stop19" />
      <stop
         offset=".308"
         stop-color="#353535"
         stop-opacity=".227"
         id="stop21" />
      <stop
         offset=".532"
         stop-color="#575757"
         stop-opacity=".318"
         id="stop23" />
      <stop
         offset=".783"
         stop-color="#858585"
         stop-opacity=".421"
         id="stop25" />
      <stop
         offset="1"
         stop-color="#b3b3b3"
         stop-opacity=".51"
         id="stop27" />
    </linearGradient>
    <path
       fill="url(#a)"
       d="M130.198 0H62.993l26.323 39.989h40.882a4.733 4.733 0 0 0 4.729-4.724V4.726A4.734 4.734 0 0 0 130.198 0z"
       id="path30" />
    <g
       fill="#FFF"
       id="g34">
      <path
         d="M53.665 31.504h-2.271l-1.244-3.909h-4.324l-1.185 3.909H42.43l4.285-13.308h2.646l4.304 13.308zm-3.89-5.549L48.65 22.48c-.119-.355-.343-1.191-.671-2.507h-.04c-.132.566-.343 1.402-.632 2.507l-1.106 3.475h3.574zM64.663 26.588c0 1.632-.443 2.922-1.33 3.869-.794.843-1.781 1.264-2.958 1.264-1.271 0-2.185-.453-2.74-1.361v5.035h-2.132V25.062c0-1.025-.027-2.076-.079-3.154h1.875l.119 1.521h.04c.711-1.146 1.79-1.719 3.238-1.719 1.132 0 2.077.447 2.833 1.342.755.897 1.134 2.075 1.134 3.536zm-2.172.078c0-.934-.21-1.704-.632-2.311-.461-.631-1.08-.947-1.856-.947-.526 0-1.004.176-1.431.523-.428.35-.708.807-.839 1.373a2.784 2.784 0 0 0-.099.649v1.601c0 .697.214 1.286.642 1.768.428.48.984.721 1.668.721.803 0 1.428-.311 1.875-.928.448-.619.672-1.435.672-2.449zM75.7 26.588c0 1.632-.443 2.922-1.33 3.869-.795.843-1.781 1.264-2.959 1.264-1.271 0-2.185-.453-2.74-1.361v5.035h-2.132V25.062c0-1.025-.027-2.076-.079-3.154h1.875l.119 1.521h.04c.71-1.146 1.789-1.719 3.238-1.719 1.131 0 2.076.447 2.834 1.342.754.897 1.134 2.075 1.134 3.536zm-2.173.078c0-.934-.211-1.704-.633-2.311-.461-.631-1.078-.947-1.854-.947-.526 0-1.004.176-1.433.523-.428.35-.707.807-.838 1.373-.065.264-.1.479-.1.649v1.601c0 .697.215 1.286.641 1.768.428.479.984.721 1.67.721.804 0 1.429-.311 1.875-.928.448-.619.672-1.435.672-2.449zM88.04 27.771c0 1.133-.396 2.054-1.183 2.765-.866.776-2.075 1.165-3.625 1.165-1.432 0-2.58-.276-3.446-.829l.493-1.777c.935.554 1.962.83 3.08.83.804 0 1.429-.182 1.875-.543.447-.362.673-.846.673-1.45 0-.541-.187-.994-.554-1.363-.369-.368-.979-.711-1.836-1.026-2.33-.869-3.496-2.14-3.496-3.812 0-1.092.412-1.986 1.234-2.685.822-.698 1.912-1.047 3.268-1.047 1.211 0 2.22.211 3.021.632l-.535 1.738c-.754-.408-1.605-.612-2.557-.612-.752 0-1.342.185-1.764.553-.355.329-.535.73-.535 1.206 0 .525.205.961.613 1.303.354.315 1 .658 1.934 1.026 1.146.462 1.988 1 2.527 1.618.543.618.813 1.389.813 2.308zM95.107 23.508h-2.35v4.659c0 1.185.414 1.776 1.244 1.776.381 0 .697-.032.947-.099l.059 1.619c-.42.157-.973.236-1.658.236-.842 0-1.5-.257-1.975-.771-.473-.514-.711-1.375-.711-2.587v-4.837h-1.4v-1.6h1.4v-1.757l2.094-.632v2.389h2.35v1.604zM105.689 26.627c0 1.475-.422 2.686-1.264 3.633-.881.975-2.053 1.461-3.514 1.461-1.41 0-2.531-.467-3.367-1.4-.836-.935-1.254-2.113-1.254-3.534 0-1.487.432-2.705 1.293-3.652.863-.948 2.025-1.422 3.486-1.422 1.408 0 2.539.468 3.395 1.402.818.906 1.225 2.076 1.225 3.512zm-2.21.049c0-.879-.19-1.633-.571-2.264-.447-.762-1.087-1.143-1.916-1.143-.854 0-1.509.381-1.955 1.143-.382.631-.572 1.398-.572 2.304 0 .88.19 1.636.572 2.265.461.762 1.104 1.143 1.937 1.143.815 0 1.454-.389 1.916-1.162.392-.646.589-1.405.589-2.286zM112.622 23.783a3.71 3.71 0 0 0-.672-.059c-.75 0-1.33.282-1.738.85-.354.5-.532 1.132-.532 1.895v5.035h-2.132V24.93a67.43 67.43 0 0 0-.062-3.021h1.857l.078 1.836h.059c.226-.631.58-1.14 1.066-1.521a2.578 2.578 0 0 1 1.541-.514c.197 0 .375.014.533.039l.002 2.034zM122.157 26.252a5 5 0 0 1-.078.967h-6.396c.024.948.334 1.674.928 2.174.539.446 1.236.67 2.092.67.947 0 1.811-.15 2.588-.453l.334 1.479c-.908.396-1.98.593-3.217.593-1.488 0-2.656-.438-3.506-1.312-.848-.875-1.273-2.051-1.273-3.524 0-1.446.395-2.651 1.186-3.612.828-1.026 1.947-1.539 3.355-1.539 1.383 0 2.43.513 3.141 1.539.563.813.846 1.821.846 3.018zm-2.033-.553c.015-.633-.125-1.178-.414-1.639-.369-.594-.937-.89-1.698-.89-.697 0-1.265.289-1.697.869-.355.461-.566 1.015-.631 1.658l4.44.002z"
         id="path32" />
    </g>
    <g
       fill="#FFF"
       id="g38">
      <g
         aria-label="Coming soon on the"
         transform="scale(0.99986751,1.0001325)"
         id="text2379"
         style="font-size:8.63418px;line-height:1.25;stroke-width:0.0539636">
        <path
           d="m 47.653913,10.540538 1.209965,0.383648 q -0.27825,1.011818 -0.927499,1.505079 -0.645034,0.489046 -1.639989,0.489046 -1.231045,0 -2.023636,-0.838966 -0.792591,-0.843182 -0.792591,-2.301886 0,-1.5430224 0.796807,-2.3946359 0.796807,-0.8558293 2.095307,-0.8558293 1.134079,0 1.842351,0.6703294 0.421591,0.3962953 0.632387,1.1382952 L 47.611754,8.630732 Q 47.50214,8.1501184 47.15222,7.8718685 q -0.345705,-0.27825 -0.843182,-0.27825 -0.687193,0 -1.117216,0.4932613 -0.425806,0.4932613 -0.425806,1.5978292 0,1.172023 0.42159,1.6695 0.421591,0.497477 1.096136,0.497477 0.497478,0 0.85583,-0.316193 0.358352,-0.316193 0.514341,-0.994955 z"
           style="font-weight:bold;font-family:Arial;-inkscape-font-specification:'Arial Bold'"
           id="path8495" />
        <path
           d="m 49.656469,10.511027 q 0,-0.5902271 0.290898,-1.1425111 0.290898,-0.552284 0.822102,-0.8431816 0.53542,-0.2908977 1.193102,-0.2908977 1.016034,0 1.665284,0.6618976 0.64925,0.6576817 0.64925,1.6652838 0,1.016034 -0.657682,1.686363 -0.653466,0.666114 -1.64842,0.666114 -0.615523,0 -1.176239,-0.27825 -0.556499,-0.27825 -0.847397,-0.81367 -0.290898,-0.539637 -0.290898,-1.311148 z m 1.214182,0.06324 q 0,0.666113 0.316193,1.020249 0.316193,0.354137 0.779943,0.354137 0.46375,0 0.775727,-0.354137 0.316193,-0.354136 0.316193,-1.028681 0,-0.6576818 -0.316193,-1.0118181 -0.311977,-0.3541363 -0.775727,-0.3541363 -0.46375,0 -0.779943,0.3541363 -0.316193,0.3541363 -0.316193,1.0202501 z"
           style="font-weight:bold;font-family:Arial;-inkscape-font-specification:'Arial Bold'"
           id="path8497" />
        <path
           d="m 55.120286,8.3356184 h 1.09192 v 0.6113067 q 0.586012,-0.7124885 1.395466,-0.7124885 0.430023,0 0.746216,0.1770681 0.316193,0.1770682 0.518557,0.5354204 0.295113,-0.3583522 0.636602,-0.5354204 0.341488,-0.1770681 0.729352,-0.1770681 0.493261,0 0.83475,0.2023636 0.341488,0.1981477 0.510125,0.5860112 0.122261,0.2866818 0.122261,0.9274998 v 2.8626018 h -1.18467 v -2.559056 q 0,-0.6661139 -0.122262,-0.8600456 -0.16442,-0.2529545 -0.505909,-0.2529545 -0.248738,0 -0.467965,0.1517727 -0.219228,0.1517727 -0.316194,0.4468862 -0.09697,0.2908982 -0.09697,0.9232842 v 2.150113 h -1.184671 v -2.453659 q 0,-0.6534654 -0.06324,-0.8431813 -0.06324,-0.1897159 -0.198148,-0.2824659 -0.130693,-0.09275 -0.358352,-0.09275 -0.274034,0 -0.493261,0.1475568 -0.219228,0.1475567 -0.316194,0.4258067 -0.09275,0.2782499 -0.09275,0.9232836 v 2.175409 h -1.18467 z"
           style="font-weight:bold;font-family:Arial;-inkscape-font-specification:'Arial Bold'"
           id="path8499" />
        <path
           d="M 62.881774,7.7285276 V 6.6323915 h 1.18467 v 1.0961361 z m 0,5.0843854 V 8.3356184 h 1.18467 v 4.4772946 z"
           style="font-weight:bold;font-family:Arial;-inkscape-font-specification:'Arial Bold'"
           id="path8501" />
        <path
           d="m 69.348977,12.812913 h -1.18467 v -2.285022 q 0,-0.7251365 -0.07589,-0.935932 -0.07589,-0.2150113 -0.248739,-0.3330567 -0.168636,-0.1180454 -0.408943,-0.1180454 -0.307761,0 -0.552284,0.1686363 -0.244523,0.1686363 -0.337272,0.4468863 -0.08854,0.2782495 -0.08854,1.0286815 v 2.027852 h -1.18467 V 8.3356184 h 1.100352 v 0.6576817 q 0.586012,-0.7588635 1.475568,-0.7588635 0.39208,0 0.716705,0.1433409 0.324624,0.1391249 0.489045,0.3583522 0.168636,0.2192272 0.231875,0.4974771 0.06745,0.27825 0.06745,0.7968072 z"
           style="font-weight:bold;font-family:Arial;-inkscape-font-specification:'Arial Bold'"
           id="path8503" />
        <path
           d="m 70.445113,13.108027 1.353306,0.16442 q 0.03373,0.236091 0.155989,0.324625 0.168636,0.126477 0.531205,0.126477 0.463749,0 0.695624,-0.139125 0.155989,-0.09275 0.236091,-0.299329 0.05481,-0.147557 0.05481,-0.543852 v -0.653466 q -0.531204,0.725136 -1.340659,0.725136 -0.902204,0 -1.429193,-0.763079 -0.413159,-0.602875 -0.413159,-1.500864 0,-1.1256473 0.539637,-1.7200903 0.543852,-0.5944431 1.34909,-0.5944431 0.830534,0 1.37017,0.7293521 V 8.3356184 h 1.108784 v 4.0177606 q 0,0.792591 -0.130693,1.18467 -0.130693,0.39208 -0.366784,0.615523 -0.236091,0.223443 -0.632386,0.34992 -0.39208,0.126477 -0.994955,0.126477 -1.138295,0 -1.614692,-0.392079 -0.476398,-0.387864 -0.476398,-0.986523 0,-0.05902 0.0042,-0.14334 z m 1.058193,-2.626511 q 0,0.712488 0.274034,1.045545 0.27825,0.328841 0.682977,0.328841 0.434239,0 0.733568,-0.337273 0.29933,-0.341488 0.29933,-1.007602 0,-0.6956248 -0.286682,-1.0328975 -0.286682,-0.3372726 -0.725136,-0.3372726 -0.425807,0 -0.704057,0.3330567 -0.274034,0.3288409 -0.274034,1.0076024 z"
           style="font-weight:bold;font-family:Arial;-inkscape-font-specification:'Arial Bold'"
           id="path8505" />
        <path
           d="m 77.810304,11.535493 1.188886,-0.181284 q 0.07589,0.345704 0.307762,0.526988 0.231875,0.177068 0.64925,0.177068 0.459534,0 0.691409,-0.168636 0.155988,-0.118045 0.155988,-0.316193 0,-0.134909 -0.08432,-0.223443 -0.08853,-0.08432 -0.396295,-0.155989 -1.433409,-0.316193 -1.817057,-0.577579 -0.531204,-0.362568 -0.531204,-1.0076023 0,-0.5817954 0.459534,-0.9780907 0.459534,-0.3962954 1.424977,-0.3962954 0.919068,0 1.365954,0.2993295 0.446886,0.2993295 0.615523,0.8853407 L 80.723497,9.6256863 Q 80.651826,9.3643 80.449463,9.225175 80.251315,9.0860501 79.880315,9.0860501 q -0.467966,0 -0.670329,0.1306931 -0.134909,0.09275 -0.134909,0.2403068 0,0.1264772 0.118045,0.2150113 0.160205,0.1180454 1.104568,0.3330567 0.948579,0.215011 1.323795,0.526989 0.371,0.316193 0.371,0.881124 0,0.615523 -0.514341,1.058193 -0.51434,0.442671 -1.521942,0.442671 -0.914853,0 -1.450273,-0.371 -0.531204,-0.371 -0.695625,-1.007602 z"
           style="font-weight:bold;font-family:Arial;-inkscape-font-specification:'Arial Bold'"
           id="path8507" />
        <path
           d="m 82.759782,10.511027 q 0,-0.5902271 0.290898,-1.1425111 0.290898,-0.552284 0.822102,-0.8431816 0.53542,-0.2908977 1.193102,-0.2908977 1.016034,0 1.665284,0.6618976 0.64925,0.6576817 0.64925,1.6652838 0,1.016034 -0.657682,1.686363 -0.653466,0.666114 -1.64842,0.666114 -0.615523,0 -1.176239,-0.27825 -0.556499,-0.27825 -0.847397,-0.81367 -0.290898,-0.539637 -0.290898,-1.311148 z m 1.214182,0.06324 q 0,0.666113 0.316193,1.020249 0.316193,0.354137 0.779943,0.354137 0.46375,0 0.775727,-0.354137 0.316193,-0.354136 0.316193,-1.028681 0,-0.6576818 -0.316193,-1.0118181 Q 85.53385,9.1998796 85.0701,9.1998796 q -0.46375,0 -0.779943,0.3541363 -0.316193,0.3541363 -0.316193,1.0202501 z"
           style="font-weight:bold;font-family:Arial;-inkscape-font-specification:'Arial Bold'"
           id="path8509" />
        <path
           d="m 88.038099,10.511027 q 0,-0.5902271 0.290897,-1.1425111 0.290898,-0.552284 0.822103,-0.8431816 0.53542,-0.2908977 1.193102,-0.2908977 1.016033,0 1.665283,0.6618976 0.64925,0.6576817 0.64925,1.6652838 0,1.016034 -0.657682,1.686363 -0.653465,0.666114 -1.64842,0.666114 -0.615522,0 -1.176238,-0.27825 -0.5565,-0.27825 -0.847398,-0.81367 -0.290897,-0.539637 -0.290897,-1.311148 z m 1.214181,0.06324 q 0,0.666113 0.316193,1.020249 0.316194,0.354137 0.779943,0.354137 0.46375,0 0.775728,-0.354137 0.316193,-0.354136 0.316193,-1.028681 0,-0.6576818 -0.316193,-1.0118181 -0.311978,-0.3541363 -0.775728,-0.3541363 -0.463749,0 -0.779943,0.3541363 -0.316193,0.3541363 -0.316193,1.0202501 z"
           style="font-weight:bold;font-family:Arial;-inkscape-font-specification:'Arial Bold'"
           id="path8511" />
        <path
           d="m 97.663017,12.812913 h -1.184671 v -2.285022 q 0,-0.7251365 -0.07589,-0.935932 -0.07589,-0.2150113 -0.248739,-0.3330567 -0.168636,-0.1180454 -0.408943,-0.1180454 -0.307761,0 -0.552284,0.1686363 -0.244522,0.1686363 -0.337272,0.4468863 -0.08853,0.2782495 -0.08853,1.0286815 v 2.027852 H 93.582017 V 8.3356184 h 1.100352 v 0.6576817 q 0.586012,-0.7588635 1.475568,-0.7588635 0.39208,0 0.716705,0.1433409 0.324625,0.1391249 0.489045,0.3583522 0.168636,0.2192272 0.231875,0.4974771 0.06745,0.27825 0.06745,0.7968072 z"
           style="font-weight:bold;font-family:Arial;-inkscape-font-specification:'Arial Bold'"
           id="path8513" />
        <path
           d="m 100.98937,10.511027 q 0,-0.5902271 0.29089,-1.1425111 0.2909,-0.552284 0.82211,-0.8431816 0.53542,-0.2908977 1.1931,-0.2908977 1.01603,0 1.66528,0.6618976 0.64925,0.6576817 0.64925,1.6652838 0,1.016034 -0.65768,1.686363 -0.65347,0.666114 -1.64842,0.666114 -0.61552,0 -1.17624,-0.27825 -0.5565,-0.27825 -0.8474,-0.81367 -0.29089,-0.539637 -0.29089,-1.311148 z m 1.21418,0.06324 q 0,0.666113 0.31619,1.020249 0.31619,0.354137 0.77994,0.354137 0.46375,0 0.77573,-0.354137 0.31619,-0.354136 0.31619,-1.028681 0,-0.6576818 -0.31619,-1.0118181 -0.31198,-0.3541363 -0.77573,-0.3541363 -0.46375,0 -0.77994,0.3541363 -0.31619,0.3541363 -0.31619,1.0202501 z"
           style="font-weight:bold;font-family:Arial;-inkscape-font-specification:'Arial Bold'"
           id="path8515" />
        <path
           d="m 110.61428,12.812913 h -1.18467 v -2.285022 q 0,-0.7251365 -0.0759,-0.935932 -0.0759,-0.2150113 -0.24874,-0.3330567 -0.16864,-0.1180454 -0.40894,-0.1180454 -0.30777,0 -0.55229,0.1686363 -0.24452,0.1686363 -0.33727,0.4468863 -0.0885,0.2782495 -0.0885,1.0286815 v 2.027852 h -1.18467 V 8.3356184 h 1.10036 v 0.6576817 q 0.58601,-0.7588635 1.47556,-0.7588635 0.39208,0 0.71671,0.1433409 0.32462,0.1391249 0.48904,0.3583522 0.16864,0.2192272 0.23188,0.4974771 0.0674,0.27825 0.0674,0.7968072 z"
           style="font-weight:bold;font-family:Arial;-inkscape-font-specification:'Arial Bold'"
           id="path8517" />
        <path
           d="m 116.26782,8.3356184 v 0.9443634 h -0.80946 v 1.8044092 q 0,0.548068 0.0211,0.640818 0.0253,0.08853 0.1054,0.147556 0.0843,0.05902 0.20236,0.05902 0.16443,0 0.4764,-0.113829 l 0.10118,0.919068 q -0.41315,0.177068 -0.93593,0.177068 -0.32041,0 -0.57758,-0.105398 -0.25717,-0.109614 -0.37943,-0.27825 -0.11804,-0.172852 -0.16442,-0.46375 -0.0379,-0.206579 -0.0379,-0.83475 V 9.2799818 h -0.54385 V 8.3356184 h 0.54385 V 7.4460618 l 1.18888,-0.691409 v 1.5809656 z"
           style="font-weight:bold;font-family:Arial;-inkscape-font-specification:'Arial Bold'"
           id="path8519" />
        <path
           d="M 118.27881,6.6323915 V 8.904766 q 0.57336,-0.6703294 1.37017,-0.6703294 0.40894,0 0.73778,0.1517727 0.32884,0.1517727 0.49326,0.3878636 0.16864,0.2360908 0.22766,0.5227726 0.0632,0.2866817 0.0632,0.8895565 v 2.626511 h -1.18467 v -2.365125 q 0,-0.7040563 -0.0674,-0.8937721 -0.0675,-0.1897159 -0.24031,-0.2993295 -0.16864,-0.1138295 -0.42581,-0.1138295 -0.29511,0 -0.52699,0.1433408 -0.23187,0.1433409 -0.34148,0.4342386 -0.1054,0.2866817 -0.1054,0.8516137 v 2.242863 h -1.18467 V 6.6323915 Z"
           style="font-weight:bold;font-family:Arial;-inkscape-font-specification:'Arial Bold'"
           id="path8521" />
        <path
           d="m 124.96945,11.387936 1.18045,0.198148 q -0.22766,0.64925 -0.72092,0.990738 -0.48904,0.337273 -1.22683,0.337273 -1.1678,0 -1.72852,-0.76308 -0.44267,-0.611306 -0.44267,-1.543022 0,-1.1129998 0.5818,-1.7411702 0.58179,-0.6323862 1.47135,-0.6323862 0.99917,0 1.57675,0.6618976 0.57758,0.6576817 0.55228,2.0194198 h -2.968 q 0.0126,0.526989 0.28668,0.822102 0.27404,0.290898 0.68298,0.290898 0.27825,0 0.46797,-0.151773 0.18971,-0.151772 0.28668,-0.489045 z m 0.0675,-1.197318 q -0.0126,-0.5143408 -0.2656,-0.779943 -0.25295,-0.2698181 -0.61552,-0.2698181 -0.38786,0 -0.64082,0.2824658 -0.25295,0.2824659 -0.24874,0.7672953 z"
           style="font-weight:bold;font-family:Arial;-inkscape-font-specification:'Arial Bold'"
           id="path8523" />
      </g>
    </g>
  </g>
  <metadata
     id="metadata42">
    <rdf:RDF>
      <rdf:Description
         about="https://admin.iconscout.com/legal#licenses"
         dc:title="download-on-the-app-store-apple"
         dc:description="download-on-the-app-store-apple"
         dc:publisher="Iconscout"
         dc:date="2017-06-17"
         dc:format="image/svg+xml"
         dc:language="en">
        <dc:creator>
          <rdf:Bag>
            <rdf:li>Icon Mafia</rdf:li>
          </rdf:Bag>
        </dc:creator>
      </rdf:Description>
    </rdf:RDF>
  </metadata>
</svg>
