<?xml version="1.0" encoding="UTF-8" standalone="no"?>
<svg
   id="Layer_1"
   viewBox="0 0 135 40"
   width="2500"
   height="741"
   version="1.1"
   sodipodi:docname="download-1.svg"
   inkscape:version="1.1 (c4e8f9e, 2021-05-24)"
   xmlns:inkscape="http://www.inkscape.org/namespaces/inkscape"
   xmlns:sodipodi="http://sodipodi.sourceforge.net/DTD/sodipodi-0.dtd"
   xmlns="http://www.w3.org/2000/svg"
   xmlns:svg="http://www.w3.org/2000/svg"
   xmlns:rdf="http://www.w3.org/1999/02/22-rdf-syntax-ns#"
   xmlns:dc="http://purl.org/dc/elements/1.1/">
  <defs
     id="defs78" />
  <sodipodi:namedview
     id="namedview76"
     pagecolor="#505050"
     bordercolor="#eeeeee"
     borderopacity="1"
     inkscape:pageshadow="0"
     inkscape:pageopacity="0"
     inkscape:pagecheckerboard="0"
     showgrid="false"
     inkscape:zoom="0.24258858"
     inkscape:cx="1461.3219"
     inkscape:cy="278.24888"
     inkscape:window-width="1280"
     inkscape:window-height="701"
     inkscape:window-x="0"
     inkscape:window-y="23"
     inkscape:window-maximized="1"
     inkscape:current-layer="Layer_1" />
  <style
     id="style9">.st0{fill:#a6a6a6}.st1{fill:#fff}.st2{fill:url(#SVGID_1_)}.st3{fill:url(#SVGID_2_)}.st4{fill:url(#SVGID_3_)}.st5{fill:url(#SVGID_4_)}.st6,.st7,.st8{opacity:.2;enable-background:new}.st7,.st8{opacity:.12}.st8{opacity:.25;fill:#fff}.st9{fill:#fff;stroke:#fff;stroke-width:.2;stroke-miterlimit:10}</style>
  <path
     d="M130 40H5c-2.8 0-5-2.2-5-5V5c0-2.8 2.2-5 5-5h125c2.8 0 5 2.2 5 5v30c0 2.8-2.2 5-5 5z"
     id="path11" />
  <path
     class="st0"
     d="M130 .8c2.3 0 4.2 1.9 4.2 4.2v30c0 2.3-1.9 4.2-4.2 4.2H5C2.7 39.2.8 37.3.8 35V5C.8 2.7 2.7.8 5 .8h125m0-.8H5C2.2 0 0 2.3 0 5v30c0 2.8 2.2 5 5 5h125c2.8 0 5-2.2 5-5V5c0-2.7-2.2-5-5-5z"
     style="fill: #a6a6a6;"
     id="path13" />
  <path
     class="st1"
     d="M68.1 21.8c-2.4 0-4.3 1.8-4.3 4.3 0 2.4 1.9 4.3 4.3 4.3s4.3-1.8 4.3-4.3c0-2.6-1.9-4.3-4.3-4.3zm0 6.8c-1.3 0-2.4-1.1-2.4-2.6s1.1-2.6 2.4-2.6c1.3 0 2.4 1 2.4 2.6 0 1.5-1.1 2.6-2.4 2.6zm-9.3-6.8c-2.4 0-4.3 1.8-4.3 4.3 0 2.4 1.9 4.3 4.3 4.3s4.3-1.8 4.3-4.3c0-2.6-1.9-4.3-4.3-4.3zm0 6.8c-1.3 0-2.4-1.1-2.4-2.6s1.1-2.6 2.4-2.6c1.3 0 2.4 1 2.4 2.6 0 1.5-1.1 2.6-2.4 2.6zm-11.1-5.5v1.8H52c-.1 1-.5 1.8-1 2.3-.6.6-1.6 1.3-3.3 1.3-2.7 0-4.7-2.1-4.7-4.8s2.1-4.8 4.7-4.8c1.4 0 2.5.6 3.3 1.3l1.3-1.3c-1.1-1-2.5-1.8-4.5-1.8-3.6 0-6.7 3-6.7 6.6 0 3.6 3.1 6.6 6.7 6.6 2 0 3.4-.6 4.6-1.9 1.2-1.2 1.6-2.9 1.6-4.2 0-.4 0-.8-.1-1.1h-6.2zm45.4 1.4c-.4-1-1.4-2.7-3.6-2.7s-4 1.7-4 4.3c0 2.4 1.8 4.3 4.2 4.3 1.9 0 3.1-1.2 3.5-1.9l-1.4-1c-.5.7-1.1 1.2-2.1 1.2s-1.6-.4-2.1-1.3l5.7-2.4-.2-.5zm-5.8 1.4c0-1.6 1.3-2.5 2.2-2.5.7 0 1.4.4 1.6.9l-3.8 1.6zM82.6 30h1.9V17.5h-1.9V30zm-3-7.3c-.5-.5-1.3-1-2.3-1-2.1 0-4.1 1.9-4.1 4.3s1.9 4.2 4.1 4.2c1 0 1.8-.5 2.2-1h.1v.6c0 1.6-.9 2.5-2.3 2.5-1.1 0-1.9-.8-2.1-1.5l-1.6.7c.5 1.1 1.7 2.5 3.8 2.5 2.2 0 4-1.3 4-4.4V22h-1.8v.7zm-2.2 5.9c-1.3 0-2.4-1.1-2.4-2.6s1.1-2.6 2.4-2.6c1.3 0 2.3 1.1 2.3 2.6s-1 2.6-2.3 2.6zm24.4-11.1h-4.5V30h1.9v-4.7h2.6c2.1 0 4.1-1.5 4.1-3.9s-2-3.9-4.1-3.9zm.1 6h-2.7v-4.3h2.7c1.4 0 2.2 1.2 2.2 2.1-.1 1.1-.9 2.2-2.2 2.2zm11.5-1.8c-1.4 0-2.8.6-3.3 1.9l1.7.7c.4-.7 1-.9 1.7-.9 1 0 1.9.6 2 1.6v.1c-.3-.2-1.1-.5-1.9-.5-1.8 0-3.6 1-3.6 2.8 0 1.7 1.5 2.8 3.1 2.8 1.3 0 1.9-.6 2.4-1.2h.1v1h1.8v-4.8c-.2-2.2-1.9-3.5-4-3.5zm-.2 6.9c-.6 0-1.5-.3-1.5-1.1 0-1 1.1-1.3 2-1.3.8 0 1.2.2 1.7.4-.2 1.2-1.2 2-2.2 2zm10.5-6.6l-2.1 5.4h-.1l-2.2-5.4h-2l3.3 7.6-1.9 4.2h1.9l5.1-11.8h-2zm-16.8 8h1.9V17.5h-1.9V30z"
     style="fill: #fff;"
     id="path15" />
  <linearGradient
     id="SVGID_1_"
     gradientUnits="userSpaceOnUse"
     x1="21.8"
     y1="33.29"
     x2="5.017"
     y2="16.508"
     gradientTransform="matrix(1 0 0 -1 0 42)">
    <stop
       offset="0"
       stop-color="#00a0ff"
       id="stop17" />
    <stop
       offset=".007"
       stop-color="#00a1ff"
       id="stop19" />
    <stop
       offset=".26"
       stop-color="#00beff"
       id="stop21" />
    <stop
       offset=".512"
       stop-color="#00d2ff"
       id="stop23" />
    <stop
       offset=".76"
       stop-color="#00dfff"
       id="stop25" />
    <stop
       offset="1"
       stop-color="#00e3ff"
       id="stop27" />
  </linearGradient>
  <path
     class="st2"
     d="M10.4 7.5c-.3.3-.4.8-.4 1.4V31c0 .6.2 1.1.5 1.4l.1.1L23 20.1v-.2L10.4 7.5z"
     style="fill: url(#SVGID_1_);"
     id="path30" />
  <linearGradient
     id="SVGID_2_"
     gradientUnits="userSpaceOnUse"
     x1="33.834"
     y1="21.999"
     x2="9.637"
     y2="21.999"
     gradientTransform="matrix(1 0 0 -1 0 42)">
    <stop
       offset="0"
       stop-color="#ffe000"
       id="stop32" />
    <stop
       offset=".409"
       stop-color="#ffbd00"
       id="stop34" />
    <stop
       offset=".775"
       stop-color="orange"
       id="stop36" />
    <stop
       offset="1"
       stop-color="#ff9c00"
       id="stop38" />
  </linearGradient>
  <path
     class="st3"
     d="M27 24.3l-4.1-4.1V19.9l4.1-4.1.1.1 4.9 2.8c1.4.8 1.4 2.1 0 2.9l-5 2.7z"
     style="fill: url(#SVGID_2_);"
     id="path41" />
  <linearGradient
     id="SVGID_3_"
     gradientUnits="userSpaceOnUse"
     x1="24.827"
     y1="19.704"
     x2="2.069"
     y2="-3.054"
     gradientTransform="matrix(1 0 0 -1 0 42)">
    <stop
       offset="0"
       stop-color="#ff3a44"
       id="stop43" />
    <stop
       offset="1"
       stop-color="#c31162"
       id="stop45" />
  </linearGradient>
  <path
     class="st4"
     d="M27.1 24.2L22.9 20 10.4 32.5c.5.5 1.2.5 2.1.1l14.6-8.4"
     style="fill: url(#SVGID_3_);"
     id="path48" />
  <linearGradient
     id="SVGID_4_"
     gradientUnits="userSpaceOnUse"
     x1="7.297"
     y1="41.824"
     x2="17.46"
     y2="31.661"
     gradientTransform="matrix(1 0 0 -1 0 42)">
    <stop
       offset="0"
       stop-color="#32a071"
       id="stop50" />
    <stop
       offset=".069"
       stop-color="#2da771"
       id="stop52" />
    <stop
       offset=".476"
       stop-color="#15cf74"
       id="stop54" />
    <stop
       offset=".801"
       stop-color="#06e775"
       id="stop56" />
    <stop
       offset="1"
       stop-color="#00f076"
       id="stop58" />
  </linearGradient>
  <path
     class="st5"
     d="M27.1 15.8L12.5 7.5c-.9-.5-1.6-.4-2.1.1L22.9 20l4.2-4.2z"
     style="fill: url(#SVGID_4_);"
     id="path61" />
  <path
     class="st6"
     d="M27 24.1l-14.5 8.2c-.8.5-1.5.4-2 0l-.1.1.1.1c.5.4 1.2.5 2 0L27 24.1z"
     style="enable-background: new; opacity: .2;"
     id="path63" />
  <path
     class="st7"
     d="M10.4 32.3c-.3-.3-.4-.8-.4-1.4v.1c0 .6.2 1.1.5 1.4v-.1h-.1zM32 21.3l-5 2.8.1.1 4.9-2.8c.7-.4 1-.9 1-1.4 0 .5-.4.9-1 1.3z"
     style="enable-background: new; opacity: .12;"
     id="path65" />
  <path
     class="st8"
     d="M12.5 7.6L32 18.7c.6.4 1 .8 1 1.3 0-.5-.3-1-1-1.4L12.5 7.5c-1.4-.8-2.5-.2-2.5 1.4V9c0-1.5 1.1-2.2 2.5-1.4z"
     style="enable-background: new; opacity: .25; fill: #fff;"
     id="path67" />
  <metadata
     id="metadata73">
    <rdf:RDF>
      <rdf:Description
         about="https://iconscout.com/legal#licenses"
         dc:title="google-play-badge-1"
         dc:description="google-play-badge-1"
         dc:publisher="Iconscout"
         dc:date="2017-06-06"
         dc:format="image/svg+xml"
         dc:language="en">
        <dc:creator>
          <rdf:Bag>
            <rdf:li>Icon Mafia</rdf:li>
          </rdf:Bag>
        </dc:creator>
      </rdf:Description>
    </rdf:RDF>
  </metadata>
  <g
     aria-label="Coming soon on the"
     id="text1452"
     style="font-weight:bold;font-size:8.64px;line-height:1.25;font-family:Ar;-inkscape-font-specification:'Ar Bold';stroke-width:0.054">
    <path
       d="m 39.390297,13.780431 q -0.700313,0 -1.295156,-0.206719 -0.590625,-0.206719 -1.016719,-0.615938 -0.426094,-0.409219 -0.662344,-1.020937 -0.232031,-0.611719 -0.232031,-1.413282 0,-0.7467184 0.223594,-1.3542184 0.223593,-0.6075 0.649687,-1.0420313 0.409219,-0.4176563 1.0125,-0.6454688 0.6075,-0.2278125 1.324688,-0.2278125 0.396562,0 0.712968,0.046406 0.320625,0.042187 0.590625,0.1139062 0.282657,0.080156 0.510469,0.1814063 0.232032,0.097031 0.405,0.1814062 v 1.5229689 h -0.185625 q -0.118125,-0.1012501 -0.299531,-0.2404688 -0.177188,-0.1392188 -0.405,-0.2742188 -0.232031,-0.135 -0.502031,-0.2278125 -0.27,-0.092812 -0.577969,-0.092812 -0.341719,0 -0.649688,0.1096875 -0.307968,0.1054688 -0.569531,0.354375 -0.248906,0.2404688 -0.405,0.6370313 -0.151875,0.3965625 -0.151875,0.9618749 0,0.590625 0.164531,0.987188 0.16875,0.396562 0.421875,0.624375 0.257344,0.232031 0.57375,0.333281 0.316407,0.09703 0.624375,0.09703 0.295313,0 0.582188,-0.08859 0.291094,-0.08859 0.535781,-0.240468 0.206719,-0.122344 0.383906,-0.261563 0.177188,-0.139219 0.291094,-0.240469 h 0.16875 v 1.501876 q -0.23625,0.105468 -0.451406,0.198281 -0.215156,0.09281 -0.451406,0.160312 -0.307969,0.08859 -0.577969,0.135 -0.27,0.04641 -0.7425,0.04641 z"
       style="fill:#ffffff"
       id="path3674" />
    <path
       d="m 47.570454,11.291368 q 0,1.168594 -0.683438,1.843594 -0.679219,0.670781 -1.911094,0.670781 -1.231875,0 -1.915312,-0.670781 -0.679219,-0.675 -0.679219,-1.843594 0,-1.177031 0.683437,-1.8478126 0.687657,-0.6707813 1.911094,-0.6707813 1.240313,0 1.915313,0.675 0.679219,0.6749999 0.679219,1.8435939 z m -1.868907,1.151719 q 0.147657,-0.181407 0.219375,-0.434532 0.07594,-0.257343 0.07594,-0.70875 0,-0.417656 -0.07594,-0.700312 -0.07594,-0.282656 -0.210937,-0.451406 -0.135,-0.1729691 -0.324844,-0.2446879 -0.189844,-0.071719 -0.409219,-0.071719 -0.219375,0 -0.392344,0.059062 -0.16875,0.059063 -0.324843,0.2362501 -0.139219,0.164531 -0.223594,0.451406 -0.08016,0.286875 -0.08016,0.721406 0,0.388125 0.07172,0.675 0.07172,0.282657 0.210938,0.455625 0.135,0.164532 0.320625,0.240469 0.189844,0.07594 0.430313,0.07594 0.206718,0 0.392343,-0.0675 0.189844,-0.07172 0.320625,-0.23625 z"
       style="fill:#ffffff"
       id="path3676" />
    <path
       d="m 53.299516,10.299962 v 3.358125 h -1.527187 v -2.366719 q 0,-0.345938 -0.01687,-0.586406 -0.01687,-0.244688 -0.09281,-0.396563 -0.07594,-0.151875 -0.232031,-0.219375 -0.151875,-0.07172 -0.430313,-0.07172 -0.223593,0 -0.434531,0.09281 -0.210937,0.08859 -0.379687,0.189844 v 3.358125 H 48.667328 V 8.9204303 h 1.518751 v 0.5231251 q 0.392343,-0.3079688 0.750937,-0.4809376 0.358594,-0.1729687 0.793125,-0.1729687 0.468281,0 0.826875,0.2109375 0.358594,0.2067187 0.561094,0.6117188 0.455625,-0.3839063 0.885937,-0.6032813 0.430313,-0.219375 0.84375,-0.219375 0.767813,0 1.164376,0.4598438 0.400781,0.4598437 0.400781,1.3246871 v 3.083907 h -1.527188 v -2.366719 q 0,-0.350156 -0.01687,-0.590625 -0.01266,-0.240469 -0.08859,-0.392344 -0.07172,-0.151875 -0.227812,-0.219375 -0.156094,-0.07172 -0.43875,-0.07172 -0.189844,0 -0.37125,0.0675 -0.181406,0.06328 -0.442969,0.215157 z"
       style="fill:#ffffff"
       id="path3678" />
    <path
       d="m 59.332329,13.658087 h -1.51875 V 8.9204303 h 1.51875 z m 0.04219,-5.4126567 H 57.771392 V 7.0937115 h 1.603125 z"
       style="fill:#ffffff"
       id="path3680" />
    <path
       d="m 65.525454,13.658087 h -1.527187 v -2.349844 q 0,-0.286875 -0.02953,-0.569531 -0.02953,-0.286875 -0.10125,-0.421875 -0.08438,-0.156094 -0.248907,-0.227813 -0.160312,-0.07172 -0.451406,-0.07172 -0.206719,0 -0.421875,0.0675 -0.210937,0.0675 -0.459844,0.215157 v 3.358125 h -1.51875 V 8.9204303 h 1.51875 v 0.5231251 q 0.405,-0.3164063 0.77625,-0.4851563 0.375469,-0.16875 0.831094,-0.16875 0.767813,0 1.198125,0.4471875 0.434531,0.4471875 0.434531,1.3373434 z"
       style="fill:#ffffff"
       id="path3682" />
    <path
       d="m 71.532956,13.113868 q 0,0.666563 -0.189844,1.122188 -0.189844,0.455625 -0.531563,0.712968 -0.341719,0.261563 -0.826875,0.375469 -0.480937,0.118125 -1.088437,0.118125 -0.493594,0 -0.974532,-0.05906 -0.476718,-0.05906 -0.826875,-0.143438 v -1.185469 h 0.185625 q 0.278438,0.109688 0.679219,0.198282 0.400781,0.09281 0.717188,0.09281 0.421875,0 0.683437,-0.08016 0.265781,-0.07594 0.405,-0.219375 0.130781,-0.135 0.189844,-0.345938 0.05906,-0.210937 0.05906,-0.50625 v -0.08859 q -0.274218,0.223593 -0.6075,0.354375 -0.333281,0.130781 -0.7425,0.130781 -0.995625,0 -1.535625,-0.599063 -0.54,-0.599062 -0.54,-1.8225 0,-0.586406 0.164532,-1.0125 0.164531,-0.4260936 0.464062,-0.7424999 0.278438,-0.2953125 0.683438,-0.4598438 0.409218,-0.1645312 0.835312,-0.1645312 0.383906,0 0.696094,0.092812 0.316406,0.088594 0.57375,0.2489062 l 0.05484,-0.2109375 h 1.472344 z m -1.518751,-0.949219 v -2.147344 q -0.130781,-0.054843 -0.320625,-0.084375 -0.189843,-0.03375 -0.341718,-0.03375 -0.599063,0 -0.898594,0.3459376 -0.299531,0.341719 -0.299531,0.957656 0,0.683438 0.253125,0.953438 0.257343,0.27 0.759375,0.27 0.227812,0 0.447187,-0.07172 0.219375,-0.07172 0.400781,-0.189844 z"
       style="fill:#ffffff"
       id="path3684" />
    <path
       d="m 80.037954,12.156212 q 0,0.734062 -0.658125,1.185469 -0.658125,0.447187 -1.801407,0.447187 -0.632812,0 -1.1475,-0.118125 -0.514687,-0.118125 -0.826875,-0.261562 V 12.16043 h 0.139219 q 0.113906,0.08016 0.261563,0.177188 0.151875,0.09281 0.426093,0.2025 0.23625,0.09703 0.535782,0.16875 0.299531,0.0675 0.64125,0.0675 0.447187,0 0.662344,-0.09703 0.215156,-0.10125 0.215156,-0.295313 0,-0.172969 -0.126563,-0.248906 -0.126562,-0.08016 -0.480937,-0.151875 -0.16875,-0.03797 -0.459844,-0.08016 -0.286875,-0.04641 -0.523125,-0.109688 -0.645469,-0.16875 -0.957656,-0.523125 -0.312188,-0.358594 -0.312188,-0.890156 0,-0.6834376 0.645469,-1.1348439 0.649687,-0.455625 1.771875,-0.455625 0.531563,0 1.016719,0.1096875 0.489375,0.1054687 0.763594,0.2278125 v 1.1981249 h -0.130782 q -0.3375,-0.232031 -0.772031,-0.3754686 -0.430312,-0.1476563 -0.873281,-0.1476563 -0.367032,0 -0.620157,0.10125 -0.248906,0.1012499 -0.248906,0.2868749 0,0.16875 0.113906,0.257344 0.113907,0.08859 0.535782,0.177187 0.232031,0.04641 0.497812,0.09281 0.27,0.04219 0.54,0.109687 0.599063,0.156094 0.885938,0.493594 0.286875,0.333281 0.286875,0.835313 z"
       style="fill:#ffffff"
       id="path3686" />
    <path
       d="m 85.89358,11.291368 q 0,1.168594 -0.683438,1.843594 -0.679218,0.670781 -1.911093,0.670781 -1.231875,0 -1.915313,-0.670781 -0.679219,-0.675 -0.679219,-1.843594 0,-1.177031 0.683438,-1.8478126 0.687656,-0.6707813 1.911094,-0.6707813 1.240312,0 1.915312,0.675 0.679219,0.6749999 0.679219,1.8435939 z m -1.868906,1.151719 q 0.147656,-0.181407 0.219375,-0.434532 0.07594,-0.257343 0.07594,-0.70875 0,-0.417656 -0.07594,-0.700312 -0.07594,-0.282656 -0.210938,-0.451406 -0.135,-0.1729691 -0.324844,-0.2446879 -0.189843,-0.071719 -0.409218,-0.071719 -0.219375,0 -0.392344,0.059062 -0.16875,0.059063 -0.324844,0.2362501 -0.139219,0.164531 -0.223594,0.451406 -0.08016,0.286875 -0.08016,0.721406 0,0.388125 0.07172,0.675 0.07172,0.282657 0.210937,0.455625 0.135,0.164532 0.320625,0.240469 0.189844,0.07594 0.430313,0.07594 0.206719,0 0.392344,-0.0675 0.189843,-0.07172 0.320625,-0.23625 z"
       style="fill:#ffffff"
       id="path3688" />
    <path
       d="m 91.833579,11.291368 q 0,1.168594 -0.683438,1.843594 -0.679219,0.670781 -1.911094,0.670781 -1.231875,0 -1.915312,-0.670781 -0.679219,-0.675 -0.679219,-1.843594 0,-1.177031 0.683437,-1.8478126 0.687657,-0.6707813 1.911094,-0.6707813 1.240313,0 1.915313,0.675 0.679219,0.6749999 0.679219,1.8435939 z m -1.868907,1.151719 q 0.147656,-0.181407 0.219375,-0.434532 0.07594,-0.257343 0.07594,-0.70875 0,-0.417656 -0.07594,-0.700312 -0.07594,-0.282656 -0.210937,-0.451406 -0.135,-0.1729691 -0.324844,-0.2446879 -0.189844,-0.071719 -0.409219,-0.071719 -0.219375,0 -0.392344,0.059062 -0.16875,0.059063 -0.324843,0.2362501 -0.139219,0.164531 -0.223594,0.451406 -0.08016,0.286875 -0.08016,0.721406 0,0.388125 0.07172,0.675 0.07172,0.282657 0.210938,0.455625 0.135,0.164532 0.320625,0.240469 0.189844,0.07594 0.430312,0.07594 0.206719,0 0.392344,-0.0675 0.189844,-0.07172 0.320625,-0.23625 z"
       style="fill:#ffffff"
       id="path3690" />
    <path
       d="m 97.689206,13.658087 h -1.527188 v -2.349844 q 0,-0.286875 -0.02953,-0.569531 -0.02953,-0.286875 -0.10125,-0.421875 -0.08438,-0.156094 -0.248906,-0.227813 -0.160313,-0.07172 -0.451406,-0.07172 -0.206719,0 -0.421875,0.0675 -0.210938,0.0675 -0.459844,0.215157 v 3.358125 h -1.51875 V 8.9204303 h 1.51875 v 0.5231251 q 0.405,-0.3164063 0.77625,-0.4851563 0.375469,-0.16875 0.831094,-0.16875 0.767812,0 1.198125,0.4471875 0.434531,0.4471875 0.434531,1.3373434 z"
       style="fill:#ffffff"
       id="path3692" />
    <path
       d="m 106.88608,11.291368 q 0,1.168594 -0.68344,1.843594 -0.67922,0.670781 -1.91109,0.670781 -1.23188,0 -1.91532,-0.670781 -0.67922,-0.675 -0.67922,-1.843594 0,-1.177031 0.68344,-1.8478126 0.68766,-0.6707813 1.9111,-0.6707813 1.24031,0 1.91531,0.675 0.67922,0.6749999 0.67922,1.8435939 z m -1.86891,1.151719 q 0.14766,-0.181407 0.21938,-0.434532 0.0759,-0.257343 0.0759,-0.70875 0,-0.417656 -0.0759,-0.700312 -0.0759,-0.282656 -0.21094,-0.451406 -0.135,-0.1729691 -0.32485,-0.2446879 -0.18984,-0.071719 -0.40921,-0.071719 -0.21938,0 -0.39235,0.059062 -0.16875,0.059063 -0.32484,0.2362501 -0.13922,0.164531 -0.2236,0.451406 -0.0801,0.286875 -0.0801,0.721406 0,0.388125 0.0717,0.675 0.0717,0.282657 0.21093,0.455625 0.135,0.164532 0.32063,0.240469 0.18984,0.07594 0.43031,0.07594 0.20672,0 0.39235,-0.0675 0.18984,-0.07172 0.32062,-0.23625 z"
       style="fill:#ffffff"
       id="path3694" />
    <path
       d="m 112.7417,13.658087 h -1.52718 v -2.349844 q 0,-0.286875 -0.0295,-0.569531 -0.0295,-0.286875 -0.10125,-0.421875 -0.0844,-0.156094 -0.24891,-0.227813 -0.16031,-0.07172 -0.45141,-0.07172 -0.20672,0 -0.42187,0.0675 -0.21094,0.0675 -0.45985,0.215157 v 3.358125 h -1.51875 V 8.9204303 h 1.51875 v 0.5231251 q 0.405,-0.3164063 0.77625,-0.4851563 0.37547,-0.16875 0.8311,-0.16875 0.76781,0 1.19812,0.4471875 0.43453,0.4471875 0.43453,1.3373434 z"
       style="fill:#ffffff"
       id="path3696" />
    <path
       d="m 120.12452,13.615899 q -0.24469,0.06328 -0.51891,0.09703 -0.27422,0.03797 -0.67078,0.03797 -0.88594,0 -1.32047,-0.358593 -0.43031,-0.358594 -0.43031,-1.227657 V 9.9498054 h -0.62437 V 8.9204303 h 0.62437 V 7.5662115 h 1.51875 v 1.3542188 h 1.42172 v 1.0293751 h -1.42172 v 1.6790626 q 0,0.248906 0.004,0.434531 0.004,0.185625 0.0675,0.333281 0.0591,0.147657 0.20672,0.23625 0.15187,0.08437 0.43875,0.08437 0.11812,0 0.30797,-0.05063 0.19406,-0.05063 0.27,-0.09281 h 0.12656 z"
       style="fill:#ffffff"
       id="path3698" />
    <path
       d="m 125.78608,13.658087 h -1.52718 v -2.349844 q 0,-0.286875 -0.0295,-0.569531 -0.0295,-0.286875 -0.10125,-0.421875 -0.0844,-0.156094 -0.24891,-0.227813 -0.16031,-0.07172 -0.45141,-0.07172 -0.20672,0 -0.42187,0.0675 -0.21094,0.0675 -0.45985,0.215157 v 3.358125 h -1.51875 V 7.0937115 h 1.51875 v 2.3498439 q 0.405,-0.3164063 0.77625,-0.4851563 0.37547,-0.16875 0.8311,-0.16875 0.76781,0 1.19812,0.4471875 0.43453,0.4471875 0.43453,1.3373434 z"
       style="fill:#ffffff"
       id="path3700" />
    <path
       d="m 131.85264,11.569805 h -3.47625 q 0.0338,0.556875 0.42188,0.852188 0.39234,0.295312 1.15172,0.295312 0.48093,0 0.93234,-0.172968 0.45141,-0.172969 0.71297,-0.37125 h 0.16875 v 1.219219 q -0.51469,0.206718 -0.97031,0.299531 -0.45563,0.09281 -1.00829,0.09281 -1.42593,0 -2.18531,-0.64125 -0.75937,-0.64125 -0.75937,-1.826719 0,-1.172812 0.71718,-1.8562496 0.72141,-0.6876563 1.97438,-0.6876563 1.15594,0 1.73812,0.5864063 0.58219,0.5821875 0.58219,1.6790626 z m -1.51031,-0.890156 q -0.0127,-0.476719 -0.23625,-0.7171874 -0.22359,-0.2404687 -0.69609,-0.2404687 -0.43875,0 -0.72141,0.2278125 -0.28266,0.2278126 -0.31641,0.7298436 z"
       style="fill:#ffffff"
       id="path3702" />
  </g>
</svg>
