<?xml version="1.0" encoding="UTF-8" standalone="no"?>
<!-- Created with Inkscape (http://www.inkscape.org/) -->

<svg
   version="1.1"
   id="svg153"
   xml:space="preserve"
   width="110"
   height="110"
   viewBox="0 0 110.00001 110"
   sodipodi:docname="HomedealsFavicon.svg"
   inkscape:version="1.1 (c4e8f9e, 2021-05-24)"
   xmlns:inkscape="http://www.inkscape.org/namespaces/inkscape"
   xmlns:sodipodi="http://sodipodi.sourceforge.net/DTD/sodipodi-0.dtd"
   xmlns="http://www.w3.org/2000/svg"
   xmlns:svg="http://www.w3.org/2000/svg"><defs
     id="defs157"><clipPath
       clipPathUnits="userSpaceOnUse"
       id="clipPath171"><path
         d="M 0,1000 H 1000 V 0 H 0 Z"
         id="path169" /></clipPath></defs><sodipodi:namedview
     id="namedview155"
     pagecolor="#505050"
     bordercolor="#eeeeee"
     borderopacity="1"
     inkscape:pageshadow="0"
     inkscape:pageopacity="0"
     inkscape:pagecheckerboard="0"
     showgrid="false"
     width="120px"
     inkscape:zoom="1.3435675"
     inkscape:cx="367.3057"
     inkscape:cy="106.06092"
     inkscape:window-width="1280"
     inkscape:window-height="701"
     inkscape:window-x="0"
     inkscape:window-y="23"
     inkscape:window-maximized="1"
     inkscape:current-layer="g244" /><g
     id="g159"
     inkscape:groupmode="layer"
     inkscape:label="Homedeals-Logo"
     transform="matrix(1.3333333,0,0,-1.3333333,0,1333.3333)"><g
       id="g165"><g
         id="g244"
         transform="translate(-247.91617,458.67512)"><g
           id="g167"
           clip-path="url(#clipPath171)"
           transform="translate(-1.5)"><g
             id="g185"
             transform="translate(519.041,488.9629)" /><g
             id="g213"
             transform="translate(324.7187,466.21)"
             style="fill:#754c29;fill-opacity:1"><path
               d="m 0,0 h -12.641 c 0.926,0.594 1.77,1.266 2.524,2.024 1.554,1.562 2.736,3.439 3.548,5.629 0.812,2.192 1.218,4.614 1.218,7.268 0,2.828 -0.459,5.342 -1.375,7.542 -0.917,2.199 -2.191,4.058 -3.823,5.577 -1.633,1.519 -3.579,2.675 -5.84,3.47 -2.261,0.795 -4.736,1.191 -7.424,1.191 h -9.506 V 67.58 H 0 Z m -67.58,67.58 h 5.351 V 32.701 h 3.09 v 16.263 h 22.704 V 32.701 0 H -67.58 Z M -21.31,0 h -12.035 v 29.979 h 9.401 c 2.601,0 4.871,-0.38 6.809,-1.14 1.938,-0.759 3.548,-1.817 4.831,-3.169 1.283,-1.354 2.243,-2.954 2.881,-4.805 0.637,-1.85 0.956,-3.867 0.956,-6.05 0,-2.287 -0.341,-4.35 -1.022,-6.192 -0.68,-1.842 -1.68,-3.414 -2.998,-4.714 C -13.806,2.608 -15.425,1.604 -17.345,0.897 -18.552,0.453 -19.882,0.165 -21.31,0 M -36.435,70.522 V 67.58 51.713 h -22.704 v 16.603 h -10e-4 v 2.206 H -70.522 V -2.942 H 2.942 v 73.464 z"
               style="fill:#754c29;fill-opacity:1;fill-rule:nonzero;stroke:none"
               id="path215" /></g></g></g></g></g></svg>
