<?xml version="1.0" encoding="UTF-8" standalone="no"?>
<!-- Created with Inkscape (http://www.inkscape.org/) -->

<svg
   version="1.1"
   id="svg9"
   xml:space="preserve"
   width="210"
   height="200"
   viewBox="0 0 210 200"
   sodipodi:docname="homedealsLogoMobile.svg"
   inkscape:version="1.1 (c4e8f9e, 2021-05-24)"
   xmlns:inkscape="http://www.inkscape.org/namespaces/inkscape"
   xmlns:sodipodi="http://sodipodi.sourceforge.net/DTD/sodipodi-0.dtd"
   xmlns="http://www.w3.org/2000/svg"
   xmlns:svg="http://www.w3.org/2000/svg"><sodipodi:namedview
     id="namedview33"
     pagecolor="#505050"
     bordercolor="#eeeeee"
     borderopacity="1"
     inkscape:pageshadow="0"
     inkscape:pageopacity="0"
     inkscape:pagecheckerboard="0"
     showgrid="false"
     inkscape:zoom="0.78"
     inkscape:cx="250.64103"
     inkscape:cy="99.358974"
     inkscape:window-width="1280"
     inkscape:window-height="701"
     inkscape:window-x="0"
     inkscape:window-y="23"
     inkscape:window-maximized="1"
     inkscape:current-layer="g1132"
     width="639px" /><defs
     id="defs13"><clipPath
       clipPathUnits="userSpaceOnUse"
       id="clipPath25"><path
         d="m 449,1712.824 h 629.551 V 1183.508 H 449 Z"
         id="path23" /></clipPath><clipPath
       clipPathUnits="userSpaceOnUse"
       id="clipPath35"><path
         d="M 449.371,1817 H 838.527 V 1427.859 H 449.371 Z"
         id="path33" /></clipPath></defs><g
     id="g15"
     transform="matrix(1.3333333,0,0,-1.3333333,0,4000)"><g
       id="g17" /><g
       id="g1132"
       transform="matrix(0.22299876,0,0,0.21831994,-92.264609,2595.5157)"><g
         id="g19"
         style="fill:#24d2f5;fill-opacity:1"><g
           id="g21"
           clip-path="url(#clipPath25)"
           style="fill:#24d2f5;fill-opacity:1"><path
             d="m 967.238,1712.254 c -34.265,0.031 -66.648,-15.672 -87.843,-42.594 l 122.117,-102.055 V 1236.059 H 855.344 v -52.512 h 223.785 v 416.781 c 0,61.817 -50.094,111.926 -111.891,111.926 z m 10.086,-155.965 -110.894,92.672 c -7.321,-15.164 -11.11,-31.789 -11.086,-48.629 v -340.074 h 121.98 z M 708.047,1236.059 H 524.844 v 175.859 H 449.277 V 1297.43 c 0,-63.133 51.344,-114.492 114.457,-114.492 h 49.172 c 39.164,0.019 75.598,20.058 96.586,53.121 z m -95.141,175.859 h -63.867 v -151.66 h 172.133 c 4.109,11.961 6.203,24.523 6.195,37.172 0,63.129 -51.347,114.488 -114.461,114.488 z"
             style="fill:#24d2f5;fill-opacity:1;fill-rule:evenodd;stroke:none"
             id="path27" /></g></g><g
         id="g29"
         style="fill:#2b2f4c;fill-opacity:1"><g
           id="g31"
           clip-path="url(#clipPath35)"
           style="fill:#2b2f4c;fill-opacity:1"><path
             d="M 763.375,1734.758 653.004,1642.52 549.145,1555.727 V 1452.25 c 29.105,-16.41 61.964,-25.012 95.378,-24.961 106.637,0 193.223,85.809 194.543,192.16 h 0.036 v 52.028 l -8.352,6.98 z m -118.852,81.785 c -107.461,0 -194.574,-87.141 -194.574,-194.629 0,-62.387 29.352,-117.914 74.992,-153.531 v 98.664 l 126.586,105.785 111.848,93.469 42.395,-35.434 33.328,-27.851 v 113.527 z"
             style="fill:#2b2f4c;fill-opacity:1;fill-rule:evenodd;stroke:none"
             id="path37" /></g></g></g></g></svg>
