<?xml version="1.0" encoding="UTF-8" standalone="no"?>
<!-- Created with Inkscape (http://www.inkscape.org/) -->

<svg
   version="1.1"
   id="svg9"
   xml:space="preserve"
   width="640"
   height="200"
   viewBox="0 0 640 200"
   sodipodi:docname="homedealsLogoALT.svg"
   inkscape:version="1.1 (c4e8f9e, 2021-05-24)"
   xmlns:inkscape="http://www.inkscape.org/namespaces/inkscape"
   xmlns:sodipodi="http://sodipodi.sourceforge.net/DTD/sodipodi-0.dtd"
   xmlns="http://www.w3.org/2000/svg"
   xmlns:svg="http://www.w3.org/2000/svg"><sodipodi:namedview
     id="namedview33"
     pagecolor="#505050"
     bordercolor="#eeeeee"
     borderopacity="1"
     inkscape:pageshadow="0"
     inkscape:pageopacity="0"
     inkscape:pagecheckerboard="0"
     showgrid="false"
     inkscape:zoom="0.78374771"
     inkscape:cx="491.86747"
     inkscape:cy="111.64307"
     inkscape:window-width="1280"
     inkscape:window-height="701"
     inkscape:window-x="0"
     inkscape:window-y="23"
     inkscape:window-maximized="0"
     inkscape:current-layer="g39" /><defs
     id="defs13"><clipPath
       clipPathUnits="userSpaceOnUse"
       id="clipPath25"><path
         d="m 449,1712.824 h 629.551 V 1183.508 H 449 Z"
         id="path23" /></clipPath><clipPath
       clipPathUnits="userSpaceOnUse"
       id="clipPath35"><path
         d="M 449.371,1817 H 838.527 V 1427.859 H 449.371 Z"
         id="path33" /></clipPath></defs><g
     id="g15"
     transform="matrix(1.3333333,0,0,-1.3333333,0,4000)"><g
       id="g17" /><g
       id="g1132"
       transform="matrix(0.22299876,0,0,0.21831994,-92.264609,2595.5157)"><g
         id="g19"
         style="fill:#24d2f5;fill-opacity:1"><g
           id="g21"
           clip-path="url(#clipPath25)"
           style="fill:#24d2f5;fill-opacity:1"><path
             d="m 967.238,1712.254 c -34.265,0.031 -66.648,-15.672 -87.843,-42.594 l 122.117,-102.055 V 1236.059 H 855.344 v -52.512 h 223.785 v 416.781 c 0,61.817 -50.094,111.926 -111.891,111.926 z m 10.086,-155.965 -110.894,92.672 c -7.321,-15.164 -11.11,-31.789 -11.086,-48.629 v -340.074 h 121.98 z M 708.047,1236.059 H 524.844 v 175.859 H 449.277 V 1297.43 c 0,-63.133 51.344,-114.492 114.457,-114.492 h 49.172 c 39.164,0.019 75.598,20.058 96.586,53.121 z m -95.141,175.859 h -63.867 v -151.66 h 172.133 c 4.109,11.961 6.203,24.523 6.195,37.172 0,63.129 -51.347,114.488 -114.461,114.488 z"
             style="fill:#24d2f5;fill-opacity:1;fill-rule:evenodd;stroke:none"
             id="path27" /></g></g><g
         id="g29"
         style="fill:#e6e6e6;fill-opacity:1"><g
           id="g31"
           clip-path="url(#clipPath35)"
           style="fill:#e6e6e6;fill-opacity:1"><path
             d="M 763.375,1734.758 653.004,1642.52 549.145,1555.727 V 1452.25 c 29.105,-16.41 61.964,-25.012 95.378,-24.961 106.637,0 193.223,85.809 194.543,192.16 h 0.036 v 52.028 l -8.352,6.98 z m -118.852,81.785 c -107.461,0 -194.574,-87.141 -194.574,-194.629 0,-62.387 29.352,-117.914 74.992,-153.531 v 98.664 l 126.586,105.785 111.848,93.469 42.395,-35.434 33.328,-27.851 v 113.527 z"
             style="fill:#e6e6e6;fill-opacity:1;fill-rule:evenodd;stroke:none"
             id="path37" /></g></g><g
         id="g39"
         style="fill:#1a1a1a"><path
           d="m 2422.465,1282.695 c 8.176,0 14.754,-2.476 19.734,-7.422 4.989,-4.937 7.485,-12.386 7.485,-22.343 v -37.891 h -27.454 v 33.156 c 0,7.614 -2.714,11.422 -8.14,11.422 -3.074,0 -5.563,-1.074 -7.469,-3.219 -1.906,-2.148 -2.859,-5.527 -2.859,-10.14 v -31.219 h -27.438 v 66.438 h 26.11 v -6.563 c 2.593,2.594 5.586,4.535 8.984,5.828 3.406,1.301 7.086,1.953 11.047,1.953 z m 120.484,-1.218 v -53.204 c 0,-12.625 -3.508,-22.113 -10.515,-28.468 -7,-6.364 -16.977,-9.547 -29.922,-9.547 -6.649,0 -12.844,0.711 -18.594,2.125 -5.75,1.418 -10.648,3.465 -14.688,6.14 l 9.219,18.704 c 2.594,-1.95 5.875,-3.524 9.844,-4.735 3.969,-1.219 7.773,-1.828 11.422,-1.828 5.5,0 9.504,1.18 12.015,3.531 2.508,2.344 3.766,5.782 3.766,10.313 v 1.219 c -4.125,-4.7 -10.234,-7.047 -18.328,-7.047 -5.68,0 -10.965,1.312 -15.859,3.937 -4.899,2.633 -8.805,6.399 -11.719,11.297 -2.918,4.906 -4.375,10.516 -4.375,16.828 0,6.32 1.457,11.91 4.375,16.766 2.914,4.851 6.82,8.597 11.719,11.234 4.894,2.633 10.179,3.953 15.859,3.953 9.062,0 15.617,-2.918 19.672,-8.75 v 7.532 z m -38.5,-41.422 c 3.239,0 5.93,0.988 8.078,2.968 2.145,1.989 3.219,4.563 3.219,7.719 0,3.156 -1.074,5.707 -3.219,7.656 -2.148,1.946 -4.839,2.922 -8.078,2.922 -3.324,0 -6.058,-0.976 -8.203,-2.922 -2.148,-1.949 -3.219,-4.5 -3.219,-7.656 0,-3.156 1.094,-5.73 3.282,-7.719 2.187,-1.98 4.898,-2.968 8.14,-2.968 z"
           style="fill:#24d2f5;fill-opacity:1;fill-rule:nonzero;stroke:none"
           id="path41" /><path
           d="m 1250.449,1488.238 c 28.5,0 53.973,-6.308 76.422,-18.922 22.457,-12.617 39.926,-30.086 52.406,-52.406 12.489,-22.324 18.735,-47.742 18.735,-76.25 0,-28.5 -6.246,-53.976 -18.735,-76.422 -12.48,-22.449 -29.949,-39.98 -52.406,-52.593 -22.449,-12.618 -47.922,-18.922 -76.422,-18.922 h -68.109 c -4.293,0 -7.824,1.382 -10.594,4.156 -2.773,2.781 -4.156,6.312 -4.156,10.594 v 266 c 0,4.289 1.383,7.82 4.156,10.593 2.77,2.782 6.301,4.172 10.594,4.172 z m 0,-269.031 c 22.957,0 43.391,5.234 61.297,15.703 17.906,10.469 31.906,24.91 42,43.328 10.094,18.414 15.141,39.223 15.141,62.422 0,23.207 -5.047,44.02 -15.141,62.438 -10.094,18.414 -24.094,32.797 -42,43.14 -17.906,10.344 -38.34,15.516 -61.297,15.516 h -53.359 v -242.547 z m 321.071,182.375 c 18.664,0 35.187,-4.355 49.562,-13.062 14.375,-8.7 25.535,-20.743 33.484,-36.125 7.946,-15.387 11.922,-32.918 11.922,-52.594 0,-4.031 -1.261,-7.246 -3.781,-9.641 -2.523,-2.398 -5.805,-3.594 -9.844,-3.594 h -152.859 c 2.019,-20.687 10.094,-37.464 24.219,-50.328 14.125,-12.867 31.781,-19.297 52.968,-19.297 9.082,0 18.227,1.571 27.438,4.719 9.207,3.156 16.582,7.129 22.125,11.922 3.281,2.52 6.687,3.781 10.219,3.781 2.781,0 5.554,-1.008 8.328,-3.015 3.281,-3.032 4.922,-6.438 4.922,-10.219 0,-3.281 -1.391,-6.184 -4.172,-8.703 -8.324,-7.063 -18.918,-12.93 -31.781,-17.594 -12.868,-4.668 -25.227,-7 -37.079,-7 -20.179,0 -38.214,4.473 -54.109,13.422 -15.887,8.957 -28.309,21.445 -37.266,37.469 -8.961,16.019 -13.437,34.117 -13.437,54.297 0,20.425 4.223,38.648 12.672,54.671 8.457,16.02 20.187,28.504 35.187,37.454 15.008,8.957 32.102,13.437 51.282,13.437 z m 0,-26.109 c -19.18,0 -35.075,-5.93 -47.688,-17.782 -12.605,-11.855 -20.297,-27.496 -23.078,-46.921 h 138.484 c -2.011,19.425 -9.074,35.066 -21.187,46.921 -12.106,11.852 -27.617,17.782 -46.531,17.782 z"
           style="fill:#e6e6e6;fill-opacity:1;fill-rule:nonzero;stroke:none"
           id="path43" /><path
           d="m 1830.609,1401.582 c 19.676,0 37.524,-4.605 53.547,-13.812 16.02,-9.211 28.629,-21.887 37.828,-38.032 9.207,-16.136 13.813,-34.043 13.813,-53.718 v -88.922 c 0,-4.032 -1.387,-7.438 -4.156,-10.219 -2.774,-2.774 -6.305,-4.156 -10.594,-4.156 -4.293,0 -7.828,1.32 -10.609,3.968 -2.774,2.657 -4.157,6.125 -4.157,10.407 v 22.703 c -8.824,-12.106 -20.047,-21.625 -33.672,-28.563 -13.617,-6.937 -28.625,-10.406 -45.031,-10.406 -19.168,0 -36.508,4.602 -52.016,13.813 -15.511,9.207 -27.746,21.816 -36.703,37.828 -8.961,16.019 -13.437,33.867 -13.437,53.547 0,19.675 4.601,37.582 13.812,53.718 9.207,16.145 21.817,28.821 37.828,38.032 16.02,9.207 33.868,13.812 53.547,13.812 z m 0,-184.266 c 14.383,0 27.375,3.407 38.969,10.219 11.602,6.813 20.75,16.207 27.438,28.188 6.687,11.976 10.031,25.41 10.031,40.297 0,14.882 -3.344,28.316 -10.031,40.296 -6.688,11.977 -15.836,21.438 -27.438,28.375 -11.594,6.938 -24.586,10.407 -38.969,10.407 -14.375,0 -27.429,-3.469 -39.156,-10.407 -11.73,-6.937 -20.937,-16.398 -27.625,-28.375 -6.687,-11.98 -10.031,-25.414 -10.031,-40.296 0,-14.887 3.344,-28.321 10.031,-40.297 6.688,-11.981 15.895,-21.375 27.625,-28.188 11.727,-6.812 24.781,-10.219 39.156,-10.219 z"
           style="fill:#e6e6e6;fill-opacity:1;fill-rule:nonzero;stroke:none"
           id="path45" /><path
           d="m 2013.648,1473.848 c 0,4.289 1.383,7.757 4.157,10.406 2.781,2.656 6.187,3.984 10.218,3.984 4.289,0 7.758,-1.328 10.407,-3.984 2.656,-2.649 3.984,-6.117 3.984,-10.406 v -215.672 c 0,-10.844 2.203,-19.672 6.609,-26.485 4.415,-6.812 10.032,-10.218 16.844,-10.218 h 9.453 c 3.789,0 6.817,-1.325 9.078,-3.969 2.27,-2.649 3.407,-6.117 3.407,-10.406 0,-4.282 -1.578,-7.75 -4.735,-10.407 -3.148,-2.648 -7.242,-3.968 -12.281,-3.968 h -4.922 c -15.387,0 -27.937,6.113 -37.656,18.343 -9.711,12.239 -14.563,27.942 -14.563,47.11 z"
           style="fill:#e6e6e6;fill-opacity:1;fill-rule:nonzero;stroke:none"
           id="path47" /><path
           d="m 2227.527,1401.582 c 16.657,0 31.161,-2.84 43.516,-8.516 12.363,-5.668 22.328,-13.546 29.891,-23.64 2.019,-3.281 3.031,-6.184 3.031,-8.703 0,-4.293 -2.024,-7.7 -6.063,-10.219 -1.761,-1.262 -4.156,-1.891 -7.187,-1.891 -5.293,0 -9.703,1.891 -13.235,5.672 -12.367,14.125 -29.265,21.188 -50.703,21.188 -13.875,0 -24.976,-2.84 -33.297,-8.516 -8.324,-5.668 -12.484,-12.793 -12.484,-21.375 0,-9.086 3.906,-16.34 11.719,-21.766 7.82,-5.418 21.695,-9.765 41.625,-13.046 26.988,-4.532 46.285,-11.907 57.89,-22.125 11.602,-10.219 17.407,-22.899 17.407,-38.032 0,-11.605 -3.469,-21.949 -10.407,-31.031 -6.937,-9.074 -16.589,-16.137 -28.953,-21.187 -12.355,-5.043 -26.351,-7.563 -41.984,-7.563 -15.648,0 -30.656,2.645 -45.031,7.938 -14.375,5.3 -25.981,12.742 -34.813,22.328 -2.523,3.031 -3.781,5.929 -3.781,8.703 0,4.289 2.016,8.078 6.047,11.359 3.031,2.27 6.187,3.406 9.469,3.406 4.281,0 7.937,-1.765 10.968,-5.296 6.051,-7.063 14.055,-12.493 24.016,-16.282 9.969,-3.781 21.008,-5.672 33.125,-5.672 17.656,0 30.895,3.024 39.719,9.079 8.832,6.05 13.375,14 13.625,23.843 0,9.082 -4.418,16.649 -13.25,22.703 -8.825,6.051 -22.821,10.594 -41.985,13.625 -24.73,4.032 -43.214,11.024 -55.453,20.985 -12.23,9.969 -18.344,22.015 -18.344,36.14 0,18.414 7.125,32.664 21.375,42.75 14.258,10.094 32.11,15.141 53.547,15.141 z"
           style="fill:#e6e6e6;fill-opacity:1;fill-rule:nonzero;stroke:none"
           id="path49" /><path
           d="m 1438.676,1807.434 v -293.407 h -67.906 v 120.297 h -133.297 v -120.297 h -67.891 v 293.407 h 67.891 v -115.688 h 133.297 v 115.688 z m 203.957,-296.766 c -23.75,0 -45.059,4.957 -63.922,14.875 -18.867,9.926 -33.609,23.691 -44.234,41.297 -10.618,17.601 -15.922,37.582 -15.922,59.937 0,22.352 5.304,42.332 15.922,59.938 10.625,17.601 25.367,31.363 44.234,41.281 18.863,9.926 40.172,14.891 63.922,14.891 23.75,0 44.984,-4.965 63.703,-14.891 18.726,-9.918 33.398,-23.68 44.016,-41.281 10.625,-17.606 15.937,-37.586 15.937,-59.938 0,-22.355 -5.312,-42.336 -15.937,-59.937 -10.618,-17.606 -25.29,-31.371 -44.016,-41.297 -18.719,-9.918 -39.953,-14.875 -63.703,-14.875 z m 0,53.656 c 16.758,0 30.519,5.656 41.281,16.969 10.758,11.32 16.141,26.484 16.141,45.484 0,19 -5.383,34.157 -16.141,45.469 -10.762,11.32 -24.523,16.984 -41.281,16.984 -16.774,0 -30.606,-5.664 -41.5,-16.984 -10.899,-11.312 -16.344,-26.469 -16.344,-45.469 0,-19 5.445,-34.164 16.344,-45.484 10.894,-11.313 24.726,-16.969 41.5,-16.969 z"
           style="fill:#e6e6e6;fill-opacity:1;fill-rule:nonzero;stroke:none"
           id="path51" /><path
           d="m 2129.82,1742.887 c 28.219,0 50.641,-8.313 67.266,-24.938 16.625,-16.625 24.937,-41.57 24.937,-74.828 v -129.094 h -65.39 v 119.047 c 0,17.875 -3.703,31.211 -11.11,40.016 -7.398,8.801 -17.945,13.203 -31.64,13.203 -15.367,0 -27.524,-4.961 -36.469,-14.875 -8.937,-9.918 -13.406,-24.656 -13.406,-44.219 v -113.172 h -65.391 v 119.047 c 0,35.477 -14.25,53.219 -42.75,53.219 -15.094,0 -27.117,-4.961 -36.062,-14.875 -8.938,-9.918 -13.407,-24.656 -13.407,-44.219 v -113.172 h -65.39 v 225.5 h 62.469 v -25.984 c 8.375,9.5 18.64,16.766 30.796,21.797 12.157,5.031 25.5,7.547 40.032,7.547 15.925,0 30.316,-3.149 43.172,-9.438 12.851,-6.281 23.191,-15.433 31.015,-27.453 9.227,11.738 20.895,20.82 35,27.25 14.113,6.426 29.555,9.641 46.328,9.641 z"
           style="fill:#e6e6e6;fill-opacity:1;fill-rule:nonzero;stroke:none"
           id="path53" /><path
           d="m 2535.43,1625.949 c 0,-0.844 -0.422,-6.715 -1.266,-17.609 H 2363.57 c 3.071,-13.969 10.336,-25.008 21.797,-33.11 11.457,-8.105 25.707,-12.156 42.75,-12.156 11.738,0 22.149,1.742 31.235,5.235 9.082,3.488 17.535,9.007 25.359,16.562 l 34.781,-37.734 c -21.23,-24.313 -52.246,-36.469 -93.047,-36.469 -25.429,0 -47.922,4.957 -67.484,14.875 -19.563,9.926 -34.656,23.691 -45.281,41.297 -10.618,17.601 -15.922,37.582 -15.922,59.937 0,22.071 5.238,41.977 15.719,59.719 10.476,17.75 24.867,31.582 43.171,41.5 18.313,9.926 38.782,14.891 61.407,14.891 22.082,0 42.062,-4.75 59.937,-14.25 17.883,-9.5 31.926,-23.125 42.125,-40.875 10.207,-17.742 15.313,-38.344 15.313,-61.813 z m -116.953,67.485 c -14.805,0 -27.235,-4.196 -37.297,-12.579 -10.063,-8.386 -16.215,-19.843 -18.453,-34.375 h 111.078 c -2.231,14.25 -8.375,25.633 -18.438,34.157 -10.062,8.531 -22.359,12.797 -36.89,12.797 z"
           style="fill:#e6e6e6;fill-opacity:1;fill-rule:nonzero;stroke:none"
           id="path55" /></g></g></g></svg>
