<?xml version="1.0" encoding="UTF-8" standalone="no"?>
<!-- Created with Inkscape (http://www.inkscape.org/) -->

<svg
   version="1.1"
   id="svg153"
   xml:space="preserve"
   width="670"
   height="110"
   viewBox="0 0 670.00003 110"
   sodipodi:docname="Homedeals-Logo.svg"
   inkscape:version="1.1 (c4e8f9e, 2021-05-24)"
   xmlns:inkscape="http://www.inkscape.org/namespaces/inkscape"
   xmlns:sodipodi="http://sodipodi.sourceforge.net/DTD/sodipodi-0.dtd"
   xmlns="http://www.w3.org/2000/svg"
   xmlns:svg="http://www.w3.org/2000/svg"><defs
     id="defs157"><clipPath
       clipPathUnits="userSpaceOnUse"
       id="clipPath171"><path
         d="M 0,1000 H 1000 V 0 H 0 Z"
         id="path169" /></clipPath></defs><sodipodi:namedview
     id="namedview155"
     pagecolor="#505050"
     bordercolor="#eeeeee"
     borderopacity="1"
     inkscape:pageshadow="0"
     inkscape:pageopacity="0"
     inkscape:pagecheckerboard="0"
     showgrid="false"
     width="1333.3332px"
     inkscape:zoom="1.3435675"
     inkscape:cx="367.3057"
     inkscape:cy="106.06092"
     inkscape:window-width="1280"
     inkscape:window-height="701"
     inkscape:window-x="0"
     inkscape:window-y="23"
     inkscape:window-maximized="1"
     inkscape:current-layer="g167" /><g
     id="g159"
     inkscape:groupmode="layer"
     inkscape:label="Homedeals-Logo"
     transform="matrix(1.3333333,0,0,-1.3333333,0,1333.3333)"><g
       id="g165"><g
         id="g244"
         transform="translate(-247.91617,458.67512)"><g
           id="g161"
           transform="translate(353.1519,513.8267)"><path
             d="M 0,0 H 3.197 V -12.584 H 19.752 V 0 h 3.218 v -27.694 h -3.218 v 12.3 H 3.197 v -12.3 H 0 Z"
             style="fill:#606060;fill-opacity:1;fill-rule:nonzero;stroke:none"
             id="path163" /></g><g
           id="g167"
           clip-path="url(#clipPath171)"><g
             id="g173"
             transform="translate(393.5244,499.9995)"><path
               d="m 0,0 c 0,-1.628 0.302,-3.149 0.906,-4.561 0.604,-1.412 1.432,-2.637 2.485,-3.676 1.051,-1.038 2.28,-1.856 3.685,-2.454 1.405,-0.598 2.908,-0.895 4.51,-0.895 1.602,0 3.11,0.297 4.521,0.895 1.413,0.598 2.641,1.416 3.686,2.454 1.045,1.039 1.874,2.264 2.485,3.676 0.611,1.412 0.916,2.933 0.916,4.561 0,1.643 -0.305,3.17 -0.916,4.583 -0.611,1.411 -1.44,2.64 -2.485,3.685 -1.045,1.045 -2.273,1.867 -3.686,2.464 -1.411,0.598 -2.919,0.896 -4.521,0.896 -1.602,0 -3.105,-0.298 -4.51,-0.896 C 5.671,10.135 4.442,9.313 3.391,8.268 2.338,7.223 1.51,5.994 0.906,4.583 0.302,3.17 0,1.643 0,0 m -3.197,0 c 0,1.344 0.176,2.634 0.529,3.869 0.353,1.236 0.849,2.389 1.487,3.462 0.638,1.072 1.408,2.043 2.311,2.912 0.903,0.869 1.901,1.616 2.994,2.24 1.092,0.624 2.27,1.106 3.532,1.446 1.263,0.339 2.573,0.509 3.93,0.509 1.358,0 2.668,-0.17 3.931,-0.509 1.263,-0.34 2.44,-0.822 3.533,-1.446 1.093,-0.624 2.091,-1.371 2.994,-2.24 0.902,-0.869 1.676,-1.84 2.321,-2.912 0.644,-1.073 1.143,-2.226 1.497,-3.462 0.352,-1.235 0.529,-2.525 0.529,-3.869 0,-1.331 -0.177,-2.61 -0.529,-3.838 -0.354,-1.229 -0.853,-2.379 -1.497,-3.452 -0.645,-1.073 -1.419,-2.043 -2.321,-2.912 -0.903,-0.869 -1.901,-1.616 -2.994,-2.24 -1.093,-0.624 -2.27,-1.106 -3.533,-1.445 -1.263,-0.34 -2.573,-0.51 -3.931,-0.51 -1.357,0 -2.667,0.17 -3.93,0.51 -1.262,0.339 -2.44,0.821 -3.532,1.445 -1.093,0.624 -2.091,1.371 -2.994,2.24 -0.903,0.869 -1.673,1.839 -2.311,2.912 -0.638,1.073 -1.134,2.223 -1.487,3.452 C -3.021,-2.61 -3.197,-1.331 -3.197,0"
               style="fill:#606060;fill-opacity:1;fill-rule:nonzero;stroke:none"
               id="path175" /></g><g
             id="g177"
             transform="translate(447.1938,495.4385)"><path
               d="m 0,0 -9.856,13.094 v -22.4 h -3.197 v 27.694 h 2.75 L 0.489,4.175 11.282,18.388 h 2.789 V -9.306 h -3.176 v 22.38 L 0.958,0 Z"
               style="fill:#606060;fill-opacity:1;fill-rule:nonzero;stroke:none"
               id="path179" /></g><g
             id="g181"
             transform="translate(476.937,513.8267)"><path
               d="M 0,0 H 18.246 V -2.851 H 3.197 v -9.733 h 13.094 v -2.81 H 3.197 v -9.47 h 15.232 v -2.83 H 0 Z"
               style="fill:#606060;fill-opacity:1;fill-rule:nonzero;stroke:none"
               id="path183" /></g><g
             id="g185"
             transform="translate(519.041,488.9629)"><path
               d="m 0,0 c 1.818,0 3.431,0.255 4.836,0.764 1.405,0.508 2.59,1.239 3.554,2.189 0.963,0.949 1.693,2.101 2.188,3.451 0.496,1.351 0.744,2.868 0.744,4.552 0,1.615 -0.234,3.102 -0.703,4.459 -0.468,1.358 -1.171,2.529 -2.107,3.513 C 7.575,19.912 6.396,20.679 4.979,21.229 3.56,21.779 1.899,22.054 0,22.054 H -6.802 V 0 Z m -9.999,24.864 h 10.08 c 2.104,0 4.038,-0.305 5.804,-0.917 1.763,-0.611 3.288,-1.506 4.571,-2.687 1.283,-1.181 2.284,-2.631 3.004,-4.348 0.72,-1.717 1.079,-3.676 1.079,-5.875 0,-2.063 -0.315,-3.947 -0.947,-5.651 C 12.961,3.683 12.034,2.224 10.813,1.008 9.591,-0.207 8.087,-1.15 6.302,-1.822 4.517,-2.494 2.471,-2.83 0.162,-2.83 H -9.999 Z"
               style="fill:#606060;fill-opacity:1;fill-rule:nonzero;stroke:none"
               id="path187" /></g><g
             id="g189"
             transform="translate(547.8467,513.8267)"><path
               d="M 0,0 H 18.246 V -2.851 H 3.197 v -9.733 h 13.094 v -2.81 H 3.197 v -9.47 H 18.43 v -2.83 H 0 Z"
               style="fill:#606060;fill-opacity:1;fill-rule:nonzero;stroke:none"
               id="path191" /></g><g
             id="g193"
             transform="translate(584.0449,495.3975)"><path
               d="M 0,0 H 11.974 L 6.109,13.827 5.987,14.296 5.885,13.827 Z M 13.155,-2.79 H -1.182 L -3.93,-9.265 h -3.4 L 4.439,18.429 h 3.116 l 11.75,-27.694 h -3.401 z"
               style="fill:#606060;fill-opacity:1;fill-rule:nonzero;stroke:none"
               id="path195" /></g><g
             id="g197"
             transform="translate(615.8232,513.8267)"><path
               d="m 0,0 h 3.197 v -24.864 h 13.705 v -2.83 H 0 Z"
               style="fill:#606060;fill-opacity:1;fill-rule:nonzero;stroke:none"
               id="path199" /></g><g
             id="g201"
             transform="translate(647.0947,494.0947)"><path
               d="m 0,0 c 0,-0.747 0.189,-1.463 0.569,-2.148 0.38,-0.686 0.897,-1.293 1.548,-1.823 0.652,-0.53 1.422,-0.951 2.312,-1.262 0.888,-0.313 1.842,-0.468 2.861,-0.468 2.647,0 4.652,0.453 6.018,1.363 1.364,0.91 2.046,2.247 2.046,4.012 0,0.936 -0.208,1.722 -0.622,2.351 -0.414,0.632 -0.984,1.152 -1.71,1.559 C 12.296,3.991 11.446,4.32 10.477,4.571 9.506,4.822 8.464,5.043 7.351,5.233 6.686,5.328 5.986,5.437 5.253,5.56 4.521,5.682 3.794,5.844 3.074,6.048 2.354,6.251 1.669,6.513 1.018,6.832 0.366,7.15 -0.212,7.548 -0.713,8.023 c -0.503,0.475 -0.9,1.048 -1.191,1.721 -0.292,0.672 -0.438,1.469 -0.438,2.393 0,1.085 0.183,2.124 0.549,3.115 0.366,0.991 0.957,1.864 1.772,2.617 0.814,0.753 1.88,1.354 3.197,1.802 1.317,0.448 2.932,0.672 4.846,0.672 1.466,0 2.781,-0.194 3.941,-0.58 1.16,-0.388 2.148,-0.924 2.963,-1.609 0.814,-0.686 1.438,-1.507 1.873,-2.464 0.434,-0.957 0.652,-2.006 0.652,-3.146 h -3.218 c 0,0.747 -0.152,1.422 -0.458,2.026 -0.305,0.604 -0.736,1.123 -1.293,1.558 -0.557,0.434 -1.235,0.77 -2.036,1.008 -0.8,0.237 -1.69,0.356 -2.668,0.356 -1.344,0 -2.457,-0.149 -3.34,-0.448 C 3.557,16.745 2.851,16.355 2.32,15.873 1.791,15.391 1.418,14.848 1.201,14.244 0.983,13.64 0.875,13.025 0.875,12.401 0.875,11.6 1.068,10.931 1.456,10.396 1.842,9.859 2.382,9.414 3.074,9.062 3.767,8.708 4.595,8.43 5.559,8.227 6.522,8.023 7.581,7.853 8.735,7.717 9.496,7.582 10.266,7.429 11.047,7.259 c 0.78,-0.17 1.537,-0.386 2.27,-0.652 0.733,-0.264 1.418,-0.59 2.057,-0.977 0.638,-0.387 1.194,-0.859 1.67,-1.415 0.476,-0.557 0.852,-1.209 1.13,-1.955 0.278,-0.746 0.418,-1.615 0.418,-2.607 0,-1.29 -0.259,-2.439 -0.775,-3.451 -0.515,-1.012 -1.262,-1.867 -2.24,-2.566 -0.976,-0.698 -2.169,-1.236 -3.573,-1.609 -1.405,-0.373 -2.997,-0.559 -4.775,-0.559 -1.657,0 -3.133,0.251 -4.43,0.753 -1.296,0.502 -2.389,1.154 -3.278,1.955 -0.889,0.801 -1.565,1.711 -2.026,2.728 -0.462,1.019 -0.693,2.05 -0.693,3.096 z"
               style="fill:#606060;fill-opacity:1;fill-rule:nonzero;stroke:none"
               id="path203" /></g><g
             id="g205"
             transform="translate(703.1064,486.1328)"><path
               d="M 0,0 H -2.708 L -20.282,22.033 V 0 h -3.197 v 27.694 h 2.647 L -3.197,5.6 V 27.694 H 0 Z"
               style="fill:#754c29;fill-opacity:1;fill-rule:nonzero;stroke:none"
               id="path207" /></g><g
             id="g209"
             transform="translate(731.8311,500.3057)"><path
               d="m 0,0 h 13.969 c 0.041,-2.132 -0.268,-4.097 -0.926,-5.896 -0.658,-1.798 -1.596,-3.349 -2.811,-4.653 -1.214,-1.303 -2.673,-2.321 -4.378,-3.054 -1.704,-0.733 -3.574,-1.1 -5.609,-1.1 -1.358,0 -2.668,0.17 -3.931,0.51 -1.262,0.339 -2.44,0.821 -3.533,1.445 -1.093,0.624 -2.091,1.371 -2.994,2.24 -0.902,0.869 -1.673,1.839 -2.31,2.912 -0.639,1.073 -1.134,2.223 -1.487,3.451 -0.353,1.229 -0.53,2.508 -0.53,3.839 0,1.344 0.177,2.634 0.53,3.869 0.353,1.236 0.848,2.389 1.487,3.462 0.637,1.072 1.408,2.043 2.31,2.912 0.903,0.869 1.901,1.616 2.994,2.24 1.093,0.624 2.271,1.106 3.533,1.446 1.263,0.339 2.573,0.509 3.931,0.509 2.063,0 4.004,-0.373 5.823,-1.12 1.82,-0.747 3.483,-1.88 4.99,-3.401 L 8.898,7.493 C 8.423,8.036 7.881,8.539 7.27,9 6.659,9.461 5.986,9.866 5.254,10.212 4.521,10.559 3.736,10.829 2.902,11.027 2.067,11.223 1.181,11.322 0.245,11.322 -1.358,11.322 -2.86,11.023 -4.266,10.426 -5.671,9.829 -6.9,9.007 -7.952,7.961 -9.004,6.917 -9.832,5.688 -10.437,4.276 c -0.604,-1.412 -0.906,-2.939 -0.906,-4.582 0,-1.629 0.302,-3.149 0.906,-4.561 0.605,-1.412 1.433,-2.637 2.485,-3.676 1.052,-1.038 2.281,-1.856 3.686,-2.454 1.406,-0.598 2.908,-0.896 4.511,-0.896 1.547,0 2.939,0.235 4.174,0.704 1.235,0.467 2.301,1.119 3.197,1.954 0.896,0.835 1.612,1.833 2.149,2.993 0.536,1.161 0.872,2.434 1.007,3.818 L 0,-2.424 Z"
               style="fill:#754c29;fill-opacity:1;fill-rule:nonzero;stroke:none"
               id="path211" /></g><g
             id="g213"
             transform="translate(324.7187,466.21)"
             style="fill:#754c29;fill-opacity:1"><path
               d="m 0,0 h -12.641 c 0.926,0.594 1.77,1.266 2.524,2.024 1.554,1.562 2.736,3.439 3.548,5.629 0.812,2.192 1.218,4.614 1.218,7.268 0,2.828 -0.459,5.342 -1.375,7.542 -0.917,2.199 -2.191,4.058 -3.823,5.577 -1.633,1.519 -3.579,2.675 -5.84,3.47 -2.261,0.795 -4.736,1.191 -7.424,1.191 h -9.506 V 67.58 H 0 Z m -67.58,67.58 h 5.351 V 32.701 h 3.09 v 16.263 h 22.704 V 32.701 0 H -67.58 Z M -21.31,0 h -12.035 v 29.979 h 9.401 c 2.601,0 4.871,-0.38 6.809,-1.14 1.938,-0.759 3.548,-1.817 4.831,-3.169 1.283,-1.354 2.243,-2.954 2.881,-4.805 0.637,-1.85 0.956,-3.867 0.956,-6.05 0,-2.287 -0.341,-4.35 -1.022,-6.192 -0.68,-1.842 -1.68,-3.414 -2.998,-4.714 C -13.806,2.608 -15.425,1.604 -17.345,0.897 -18.552,0.453 -19.882,0.165 -21.31,0 M -36.435,70.522 V 67.58 51.713 h -22.704 v 16.603 h -10e-4 v 2.206 H -70.522 V -2.942 H 2.942 v 73.464 z"
               style="fill:#754c29;fill-opacity:1;fill-rule:nonzero;stroke:none"
               id="path215" /></g></g></g></g></g></svg>
